<?xml version="1.0" standalone="no"?>
<!DOCTYPE svg PUBLIC "-//W3C//DTD SVG 20010904//EN"
 "http://www.w3.org/TR/2001/REC-SVG-20010904/DTD/svg10.dtd">
<svg version="1.0" xmlns="http://www.w3.org/2000/svg"
 width="512.000000pt" height="512.000000pt" viewBox="0 0 512.000000 512.000000"
 preserveAspectRatio="xMidYMid meet">
<metadata>
Created by potrace 1.11, written by Peter Selinger 2001-2013
</metadata>
<g transform="translate(0.000000,512.000000) scale(0.100000,-0.100000)"
fill="#000000" stroke="none">
<path d="M2870 3793 c-103 -16 -258 -66 -317 -103 -17 -11 -40 -11 -139 3
-268 37 -345 42 -644 42 -337 0 -412 -10 -593 -75 -170 -62 -339 -190 -442
-335 -140 -197 -236 -460 -285 -779 -13 -91 -27 -148 -39 -165 -10 -14 -51
-91 -91 -170 -39 -79 -96 -179 -126 -223 -60 -89 -121 -210 -153 -308 -50
-155 -55 -376 -9 -401 33 -18 159 -37 317 -50 172 -13 230 -4 258 38 23 35 2
73 -83 150 -41 37 -74 74 -74 83 0 20 23 41 111 103 91 64 402 389 444 464 17
32 39 59 47 61 23 4 67 -53 109 -144 66 -140 73 -184 74 -489 l0 -270 100 1
c399 3 604 6 628 11 22 4 27 10 27 34 0 71 -65 146 -143 168 -92 26 -107 62
-114 273 -9 244 28 350 148 428 118 76 264 109 354 78 l40 -13 7 -285 c8 -384
34 -592 83 -663 31 -47 75 -51 369 -40 265 10 308 18 314 59 3 22 -17 46 -101
117 -104 88 -174 274 -184 487 -9 190 25 310 113 397 46 46 58 53 92 53 79 0
175 -92 297 -285 74 -116 245 -466 326 -667 l64 -157 65 -7 c88 -11 254 -8
375 5 207 23 276 103 152 175 -23 13 -75 42 -116 63 -41 21 -83 50 -94 64 -10
15 -27 63 -38 108 -11 49 -41 126 -75 193 -128 255 -197 511 -198 728 0 69 6
150 12 180 l12 55 278 -3 c501 -7 790 52 930 189 79 78 181 265 156 289 -8 8
-192 65 -292 90 -32 8 -48 19 -60 42 -47 87 -101 119 -237 143 -126 22 -127
22 -140 118 -3 27 -13 51 -20 53 -8 3 -38 -13 -67 -35 -83 -62 -114 -71 -282
-82 -302 -19 -439 8 -778 150 l-146 61 -99 -1 c-54 -1 -109 -3 -123 -6z"/>
</g>
</svg>
